<svg width="1928" height="194" viewBox="0 0 1928 194" fill="none" xmlns="http://www.w3.org/2000/svg">
<g filter="url(#filter0_d_97_537)">
<mask id="path-1-inside-1_97_537" fill="white">
<path d="M4 0H1924V155.66H4V0Z"/>
</mask>
<path d="M4 0H1924V155.66H4V0Z" fill="#FF0000"/>
<path d="M1924 155.66V157.66H1926V155.66H1924ZM4 155.66H2V157.66H4V155.66ZM1922 0V155.66H1926V0H1922ZM1924 153.66H4V157.66H1924V153.66ZM6 155.66V0H2V155.66H6Z" fill="white" mask="url(#path-1-inside-1_97_537)"/>
<mask id="path-3-inside-2_97_537" fill="white">
<path d="M4 153.068H217.215V153.068C217.215 171.256 202.471 186 184.283 186H36.9321C18.7442 186 4 171.256 4 153.068V153.068Z"/>
</mask>
<path d="M4 153.068H217.215V153.068C217.215 171.256 202.471 186 184.283 186H36.9321C18.7442 186 4 171.256 4 153.068V153.068Z" fill="#FF0000"/>
<path d="M4 153.068H217.215H4ZM219.215 153.068C219.215 172.36 203.576 188 184.283 188H36.9321C17.6396 188 2 172.36 2 153.068H6C6 170.151 19.8488 184 36.9321 184H184.283C201.367 184 215.215 170.151 215.215 153.068H219.215ZM36.9321 188C17.6396 188 2 172.36 2 153.068H6C6 170.151 19.8488 184 36.9321 184V188ZM219.215 153.068C219.215 172.36 203.576 188 184.283 188V184C201.367 184 215.215 170.151 215.215 153.068H219.215Z" fill="white" mask="url(#path-3-inside-2_97_537)"/>
<mask id="path-5-inside-3_97_537" fill="white">
<path d="M217.216 153.068H430.431V153.068C430.431 171.256 415.687 186 397.499 186H250.148C231.96 186 217.216 171.256 217.216 153.068V153.068Z"/>
</mask>
<path d="M217.216 153.068H430.431V153.068C430.431 171.256 415.687 186 397.499 186H250.148C231.96 186 217.216 171.256 217.216 153.068V153.068Z" fill="#FF0000"/>
<path d="M217.216 153.068H430.431H217.216ZM432.431 153.068C432.431 172.36 416.792 188 397.499 188H250.148C230.855 188 215.216 172.36 215.216 153.068H219.216C219.216 170.151 233.065 184 250.148 184H397.499C414.583 184 428.431 170.151 428.431 153.068H432.431ZM250.148 188C230.855 188 215.216 172.36 215.216 153.068H219.216C219.216 170.151 233.065 184 250.148 184V188ZM432.431 153.068C432.431 172.36 416.792 188 397.499 188V184C414.583 184 428.431 170.151 428.431 153.068H432.431Z" fill="white" mask="url(#path-5-inside-3_97_537)"/>
<mask id="path-7-inside-4_97_537" fill="white">
<path d="M430.431 153.068H643.646V153.068C643.646 171.256 628.902 186 610.714 186H463.363C445.175 186 430.431 171.256 430.431 153.068V153.068Z"/>
</mask>
<path d="M430.431 153.068H643.646V153.068C643.646 171.256 628.902 186 610.714 186H463.363C445.175 186 430.431 171.256 430.431 153.068V153.068Z" fill="#FF0000"/>
<path d="M430.431 153.068H643.646H430.431ZM645.646 153.068C645.646 172.36 630.006 188 610.714 188H463.363C444.07 188 428.431 172.36 428.431 153.068H432.431C432.431 170.151 446.279 184 463.363 184H610.714C627.797 184 641.646 170.151 641.646 153.068H645.646ZM463.363 188C444.07 188 428.431 172.36 428.431 153.068H432.431C432.431 170.151 446.279 184 463.363 184V188ZM645.646 153.068C645.646 172.36 630.006 188 610.714 188V184C627.797 184 641.646 170.151 641.646 153.068H645.646Z" fill="white" mask="url(#path-7-inside-4_97_537)"/>
<mask id="path-9-inside-5_97_537" fill="white">
<path d="M643.646 153.068H856.862V153.068C856.862 171.256 842.118 186 823.93 186H676.579C658.391 186 643.646 171.256 643.646 153.068V153.068Z"/>
</mask>
<path d="M643.646 153.068H856.862V153.068C856.862 171.256 842.118 186 823.93 186H676.579C658.391 186 643.646 171.256 643.646 153.068V153.068Z" fill="#FF0000"/>
<path d="M643.646 153.068H856.862H643.646ZM858.862 153.068C858.862 172.36 843.222 188 823.93 188H676.579C657.286 188 641.646 172.36 641.646 153.068H645.646C645.646 170.151 659.495 184 676.579 184H823.93C841.013 184 854.862 170.151 854.862 153.068H858.862ZM676.579 188C657.286 188 641.646 172.36 641.646 153.068H645.646C645.646 170.151 659.495 184 676.579 184V188ZM858.862 153.068C858.862 172.36 843.222 188 823.93 188V184C841.013 184 854.862 170.151 854.862 153.068H858.862Z" fill="white" mask="url(#path-9-inside-5_97_537)"/>
<mask id="path-11-inside-6_97_537" fill="white">
<path d="M856.862 153.068H1070.08V153.068C1070.08 171.256 1055.33 186 1037.15 186H889.794C871.607 186 856.862 171.256 856.862 153.068V153.068Z"/>
</mask>
<path d="M856.862 153.068H1070.08V153.068C1070.08 171.256 1055.33 186 1037.15 186H889.794C871.607 186 856.862 171.256 856.862 153.068V153.068Z" fill="#FF0000"/>
<path d="M856.862 153.068H1070.08H856.862ZM1072.08 153.068C1072.08 172.36 1056.44 188 1037.15 188H889.794C870.502 188 854.862 172.36 854.862 153.068H858.862C858.862 170.151 872.711 184 889.794 184H1037.15C1054.23 184 1068.08 170.151 1068.08 153.068H1072.08ZM889.794 188C870.502 188 854.862 172.36 854.862 153.068H858.862C858.862 170.151 872.711 184 889.794 184V188ZM1072.08 153.068C1072.08 172.36 1056.44 188 1037.15 188V184C1054.23 184 1068.08 170.151 1068.08 153.068H1072.08Z" fill="white" mask="url(#path-11-inside-6_97_537)"/>
<mask id="path-13-inside-7_97_537" fill="white">
<path d="M1070.08 153.068H1283.29V153.068C1283.29 171.256 1268.55 186 1250.36 186H1103.01C1084.82 186 1070.08 171.256 1070.08 153.068V153.068Z"/>
</mask>
<path d="M1070.08 153.068H1283.29V153.068C1283.29 171.256 1268.55 186 1250.36 186H1103.01C1084.82 186 1070.08 171.256 1070.08 153.068V153.068Z" fill="#FF0000"/>
<path d="M1070.08 153.068H1283.29H1070.08ZM1285.29 153.068C1285.29 172.36 1269.65 188 1250.36 188H1103.01C1083.72 188 1068.08 172.36 1068.08 153.068H1072.08C1072.08 170.151 1085.93 184 1103.01 184H1250.36C1267.44 184 1281.29 170.151 1281.29 153.068H1285.29ZM1103.01 188C1083.72 188 1068.08 172.36 1068.08 153.068H1072.08C1072.08 170.151 1085.93 184 1103.01 184V188ZM1285.29 153.068C1285.29 172.36 1269.65 188 1250.36 188V184C1267.44 184 1281.29 170.151 1281.29 153.068H1285.29Z" fill="white" mask="url(#path-13-inside-7_97_537)"/>
<mask id="path-15-inside-8_97_537" fill="white">
<path d="M1283.29 153.068H1496.51V153.068C1496.51 171.256 1481.76 186 1463.58 186H1316.23C1298.04 186 1283.29 171.256 1283.29 153.068V153.068Z"/>
</mask>
<path d="M1283.29 153.068H1496.51V153.068C1496.51 171.256 1481.76 186 1463.58 186H1316.23C1298.04 186 1283.29 171.256 1283.29 153.068V153.068Z" fill="#FF0000"/>
<path d="M1283.29 153.068H1496.51H1283.29ZM1498.51 153.068C1498.51 172.36 1482.87 188 1463.58 188H1316.23C1296.93 188 1281.29 172.36 1281.29 153.068H1285.29C1285.29 170.151 1299.14 184 1316.23 184H1463.58C1480.66 184 1494.51 170.151 1494.51 153.068H1498.51ZM1316.23 188C1296.93 188 1281.29 172.36 1281.29 153.068H1285.29C1285.29 170.151 1299.14 184 1316.23 184V188ZM1498.51 153.068C1498.51 172.36 1482.87 188 1463.58 188V184C1480.66 184 1494.51 170.151 1494.51 153.068H1498.51Z" fill="white" mask="url(#path-15-inside-8_97_537)"/>
<mask id="path-17-inside-9_97_537" fill="white">
<path d="M1496.51 153.068H1709.72V153.068C1709.72 171.256 1694.98 186 1676.79 186H1529.44C1511.25 186 1496.51 171.256 1496.51 153.068V153.068Z"/>
</mask>
<path d="M1496.51 153.068H1709.72V153.068C1709.72 171.256 1694.98 186 1676.79 186H1529.44C1511.25 186 1496.51 171.256 1496.51 153.068V153.068Z" fill="#FF0000"/>
<path d="M1496.51 153.068H1709.72H1496.51ZM1711.72 153.068C1711.72 172.36 1696.08 188 1676.79 188H1529.44C1510.15 188 1494.51 172.36 1494.51 153.068H1498.51C1498.51 170.151 1512.36 184 1529.44 184H1676.79C1693.87 184 1707.72 170.151 1707.72 153.068H1711.72ZM1529.44 188C1510.15 188 1494.51 172.36 1494.51 153.068H1498.51C1498.51 170.151 1512.36 184 1529.44 184V188ZM1711.72 153.068C1711.72 172.36 1696.08 188 1676.79 188V184C1693.87 184 1707.72 170.151 1707.72 153.068H1711.72Z" fill="white" mask="url(#path-17-inside-9_97_537)"/>
<mask id="path-19-inside-10_97_537" fill="white">
<path d="M1709.72 153.068H1922.94V153.068C1922.94 171.256 1908.19 186 1890.01 186H1742.66C1724.47 186 1709.72 171.256 1709.72 153.068V153.068Z"/>
</mask>
<path d="M1709.72 153.068H1922.94V153.068C1922.94 171.256 1908.19 186 1890.01 186H1742.66C1724.47 186 1709.72 171.256 1709.72 153.068V153.068Z" fill="#FF0000"/>
<path d="M1709.72 153.068H1922.94H1709.72ZM1924.94 153.068C1924.94 172.36 1909.3 188 1890.01 188H1742.66C1723.36 188 1707.72 172.36 1707.72 153.068H1711.72C1711.72 170.151 1725.57 184 1742.66 184H1890.01C1907.09 184 1920.94 170.151 1920.94 153.068H1924.94ZM1742.66 188C1723.36 188 1707.72 172.36 1707.72 153.068H1711.72C1711.72 170.151 1725.57 184 1742.66 184V188ZM1924.94 153.068C1924.94 172.36 1909.3 188 1890.01 188V184C1907.09 184 1920.94 170.151 1920.94 153.068H1924.94Z" fill="white" mask="url(#path-19-inside-10_97_537)"/>
</g>
<defs>
<filter id="filter0_d_97_537" x="0" y="0" width="1928" height="194" filterUnits="userSpaceOnUse" color-interpolation-filters="sRGB">
<feFlood flood-opacity="0" result="BackgroundImageFix"/>
<feColorMatrix in="SourceAlpha" type="matrix" values="0 0 0 0 0 0 0 0 0 0 0 0 0 0 0 0 0 0 127 0" result="hardAlpha"/>
<feOffset dy="4"/>
<feGaussianBlur stdDeviation="2"/>
<feComposite in2="hardAlpha" operator="out"/>
<feColorMatrix type="matrix" values="0 0 0 0 0 0 0 0 0 0 0 0 0 0 0 0 0 0 0.75 0"/>
<feBlend mode="normal" in2="BackgroundImageFix" result="effect1_dropShadow_97_537"/>
<feBlend mode="normal" in="SourceGraphic" in2="effect1_dropShadow_97_537" result="shape"/>
</filter>
</defs>
</svg>
