<svg width="1928" height="171" viewBox="0 0 1928 171" fill="none" xmlns="http://www.w3.org/2000/svg">
<g filter="url(#filter0_d_97_537)">
<mask id="path-1-inside-1_97_537" fill="white">
<path d="M4 0H1924V133H4V0Z"/>
</mask>
<path d="M4 0H1924V133H4V0Z" fill="#FF0000"/>
<path d="M1924 133V135H1926V133H1924ZM4 133H2V135H4V133ZM1922 0V133H1926V0H1922ZM1924 131H4V135H1924V131ZM6 133V0H2V133H6Z" fill="white" mask="url(#path-1-inside-1_97_537)"/>
<mask id="path-3-inside-2_97_537" fill="white">
<path d="M4 130.068H217.215V130.068C217.215 148.256 202.471 163 184.283 163H36.9321C18.7442 163 4 148.256 4 130.068V130.068Z"/>
</mask>
<path d="M4 130.068H217.215V130.068C217.215 148.256 202.471 163 184.283 163H36.9321C18.7442 163 4 148.256 4 130.068V130.068Z" fill="#FF0000"/>
<path d="M4 130.068H217.215H4ZM219.215 130.068C219.215 149.36 203.576 165 184.283 165H36.9321C17.6396 165 2 149.36 2 130.068H6C6 147.151 19.8488 161 36.9321 161H184.283C201.367 161 215.215 147.151 215.215 130.068H219.215ZM36.9321 165C17.6396 165 2 149.36 2 130.068H6C6 147.151 19.8488 161 36.9321 161V165ZM219.215 130.068C219.215 149.36 203.576 165 184.283 165V161C201.367 161 215.215 147.151 215.215 130.068H219.215Z" fill="white" mask="url(#path-3-inside-2_97_537)"/>
<mask id="path-5-inside-3_97_537" fill="white">
<path d="M217.216 130.068H430.431V130.068C430.431 148.256 415.687 163 397.499 163H250.148C231.96 163 217.216 148.256 217.216 130.068V130.068Z"/>
</mask>
<path d="M217.216 130.068H430.431V130.068C430.431 148.256 415.687 163 397.499 163H250.148C231.96 163 217.216 148.256 217.216 130.068V130.068Z" fill="#FF0000"/>
<path d="M217.216 130.068H430.431H217.216ZM432.431 130.068C432.431 149.36 416.792 165 397.499 165H250.148C230.855 165 215.216 149.36 215.216 130.068H219.216C219.216 147.151 233.065 161 250.148 161H397.499C414.583 161 428.431 147.151 428.431 130.068H432.431ZM250.148 165C230.855 165 215.216 149.36 215.216 130.068H219.216C219.216 147.151 233.065 161 250.148 161V165ZM432.431 130.068C432.431 149.36 416.792 165 397.499 165V161C414.583 161 428.431 147.151 428.431 130.068H432.431Z" fill="white" mask="url(#path-5-inside-3_97_537)"/>
<mask id="path-7-inside-4_97_537" fill="white">
<path d="M430.431 130.068H643.646V130.068C643.646 148.256 628.902 163 610.714 163H463.363C445.175 163 430.431 148.256 430.431 130.068V130.068Z"/>
</mask>
<path d="M430.431 130.068H643.646V130.068C643.646 148.256 628.902 163 610.714 163H463.363C445.175 163 430.431 148.256 430.431 130.068V130.068Z" fill="#FF0000"/>
<path d="M430.431 130.068H643.646H430.431ZM645.646 130.068C645.646 149.36 630.006 165 610.714 165H463.363C444.07 165 428.431 149.36 428.431 130.068H432.431C432.431 147.151 446.279 161 463.363 161H610.714C627.797 161 641.646 147.151 641.646 130.068H645.646ZM463.363 165C444.07 165 428.431 149.36 428.431 130.068H432.431C432.431 147.151 446.279 161 463.363 161V165ZM645.646 130.068C645.646 149.36 630.006 165 610.714 165V161C627.797 161 641.646 147.151 641.646 130.068H645.646Z" fill="white" mask="url(#path-7-inside-4_97_537)"/>
<mask id="path-9-inside-5_97_537" fill="white">
<path d="M643.646 130.068H856.862V130.068C856.862 148.256 842.118 163 823.93 163H676.579C658.391 163 643.646 148.256 643.646 130.068V130.068Z"/>
</mask>
<path d="M643.646 130.068H856.862V130.068C856.862 148.256 842.118 163 823.93 163H676.579C658.391 163 643.646 148.256 643.646 130.068V130.068Z" fill="#FF0000"/>
<path d="M643.646 130.068H856.862H643.646ZM858.862 130.068C858.862 149.36 843.222 165 823.93 165H676.579C657.286 165 641.646 149.36 641.646 130.068H645.646C645.646 147.151 659.495 161 676.579 161H823.93C841.013 161 854.862 147.151 854.862 130.068H858.862ZM676.579 165C657.286 165 641.646 149.36 641.646 130.068H645.646C645.646 147.151 659.495 161 676.579 161V165ZM858.862 130.068C858.862 149.36 843.222 165 823.93 165V161C841.013 161 854.862 147.151 854.862 130.068H858.862Z" fill="white" mask="url(#path-9-inside-5_97_537)"/>
<mask id="path-11-inside-6_97_537" fill="white">
<path d="M856.862 130.068H1070.08V130.068C1070.08 148.256 1055.33 163 1037.15 163H889.794C871.607 163 856.862 148.256 856.862 130.068V130.068Z"/>
</mask>
<path d="M856.862 130.068H1070.08V130.068C1070.08 148.256 1055.33 163 1037.15 163H889.794C871.607 163 856.862 148.256 856.862 130.068V130.068Z" fill="#FF0000"/>
<path d="M856.862 130.068H1070.08H856.862ZM1072.08 130.068C1072.08 149.36 1056.44 165 1037.15 165H889.794C870.502 165 854.862 149.36 854.862 130.068H858.862C858.862 147.151 872.711 161 889.794 161H1037.15C1054.23 161 1068.08 147.151 1068.08 130.068H1072.08ZM889.794 165C870.502 165 854.862 149.36 854.862 130.068H858.862C858.862 147.151 872.711 161 889.794 161V165ZM1072.08 130.068C1072.08 149.36 1056.44 165 1037.15 165V161C1054.23 161 1068.08 147.151 1068.08 130.068H1072.08Z" fill="white" mask="url(#path-11-inside-6_97_537)"/>
<mask id="path-13-inside-7_97_537" fill="white">
<path d="M1070.08 130.068H1283.29V130.068C1283.29 148.256 1268.55 163 1250.36 163H1103.01C1084.82 163 1070.08 148.256 1070.08 130.068V130.068Z"/>
</mask>
<path d="M1070.08 130.068H1283.29V130.068C1283.29 148.256 1268.55 163 1250.36 163H1103.01C1084.82 163 1070.08 148.256 1070.08 130.068V130.068Z" fill="#FF0000"/>
<path d="M1070.08 130.068H1283.29H1070.08ZM1285.29 130.068C1285.29 149.36 1269.65 165 1250.36 165H1103.01C1083.72 165 1068.08 149.36 1068.08 130.068H1072.08C1072.08 147.151 1085.93 161 1103.01 161H1250.36C1267.44 161 1281.29 147.151 1281.29 130.068H1285.29ZM1103.01 165C1083.72 165 1068.08 149.36 1068.08 130.068H1072.08C1072.08 147.151 1085.93 161 1103.01 161V165ZM1285.29 130.068C1285.29 149.36 1269.65 165 1250.36 165V161C1267.44 161 1281.29 147.151 1281.29 130.068H1285.29Z" fill="white" mask="url(#path-13-inside-7_97_537)"/>
<mask id="path-15-inside-8_97_537" fill="white">
<path d="M1283.29 130.068H1496.51V130.068C1496.51 148.256 1481.76 163 1463.58 163H1316.23C1298.04 163 1283.29 148.256 1283.29 130.068V130.068Z"/>
</mask>
<path d="M1283.29 130.068H1496.51V130.068C1496.51 148.256 1481.76 163 1463.58 163H1316.23C1298.04 163 1283.29 148.256 1283.29 130.068V130.068Z" fill="#FF0000"/>
<path d="M1283.29 130.068H1496.51H1283.29ZM1498.51 130.068C1498.51 149.36 1482.87 165 1463.58 165H1316.23C1296.93 165 1281.29 149.36 1281.29 130.068H1285.29C1285.29 147.151 1299.14 161 1316.23 161H1463.58C1480.66 161 1494.51 147.151 1494.51 130.068H1498.51ZM1316.23 165C1296.93 165 1281.29 149.36 1281.29 130.068H1285.29C1285.29 147.151 1299.14 161 1316.23 161V165ZM1498.51 130.068C1498.51 149.36 1482.87 165 1463.58 165V161C1480.66 161 1494.51 147.151 1494.51 130.068H1498.51Z" fill="white" mask="url(#path-15-inside-8_97_537)"/>
<mask id="path-17-inside-9_97_537" fill="white">
<path d="M1496.51 130.068H1709.72V130.068C1709.72 148.256 1694.98 163 1676.79 163H1529.44C1511.25 163 1496.51 148.256 1496.51 130.068V130.068Z"/>
</mask>
<path d="M1496.51 130.068H1709.72V130.068C1709.72 148.256 1694.98 163 1676.79 163H1529.44C1511.25 163 1496.51 148.256 1496.51 130.068V130.068Z" fill="#FF0000"/>
<path d="M1496.51 130.068H1709.72H1496.51ZM1711.72 130.068C1711.72 149.36 1696.08 165 1676.79 165H1529.44C1510.15 165 1494.51 149.36 1494.51 130.068H1498.51C1498.51 147.151 1512.36 161 1529.44 161H1676.79C1693.87 161 1707.72 147.151 1707.72 130.068H1711.72ZM1529.44 165C1510.15 165 1494.51 149.36 1494.51 130.068H1498.51C1498.51 147.151 1512.36 161 1529.44 161V165ZM1711.72 130.068C1711.72 149.36 1696.08 165 1676.79 165V161C1693.87 161 1707.72 147.151 1707.72 130.068H1711.72Z" fill="white" mask="url(#path-17-inside-9_97_537)"/>
<mask id="path-19-inside-10_97_537" fill="white">
<path d="M1709.72 130.068H1922.94V130.068C1922.94 148.256 1908.19 163 1890.01 163H1742.66C1724.47 163 1709.72 148.256 1709.72 130.068V130.068Z"/>
</mask>
<path d="M1709.72 130.068H1922.94V130.068C1922.94 148.256 1908.19 163 1890.01 163H1742.66C1724.47 163 1709.72 148.256 1709.72 130.068V130.068Z" fill="#FF0000"/>
<path d="M1709.72 130.068H1922.94H1709.72ZM1924.94 130.068C1924.94 149.36 1909.3 165 1890.01 165H1742.66C1723.36 165 1707.72 149.36 1707.72 130.068H1711.72C1711.72 147.151 1725.57 161 1742.66 161H1890.01C1907.09 161 1920.94 147.151 1920.94 130.068H1924.94ZM1742.66 165C1723.36 165 1707.72 149.36 1707.72 130.068H1711.72C1711.72 147.151 1725.57 161 1742.66 161V165ZM1924.94 130.068C1924.94 149.36 1909.3 165 1890.01 165V161C1907.09 161 1920.94 147.151 1920.94 130.068H1924.94Z" fill="white" mask="url(#path-19-inside-10_97_537)"/>
</g>
<defs>
<filter id="filter0_d_97_537" x="0" y="0" width="1928" height="171" filterUnits="userSpaceOnUse" color-interpolation-filters="sRGB">
<feFlood flood-opacity="0" result="BackgroundImageFix"/>
<feColorMatrix in="SourceAlpha" type="matrix" values="0 0 0 0 0 0 0 0 0 0 0 0 0 0 0 0 0 0 127 0" result="hardAlpha"/>
<feOffset dy="4"/>
<feGaussianBlur stdDeviation="2"/>
<feComposite in2="hardAlpha" operator="out"/>
<feColorMatrix type="matrix" values="0 0 0 0 0 0 0 0 0 0 0 0 0 0 0 0 0 0 0.75 0"/>
<feBlend mode="normal" in2="BackgroundImageFix" result="effect1_dropShadow_97_537"/>
<feBlend mode="normal" in="SourceGraphic" in2="effect1_dropShadow_97_537" result="shape"/>
</filter>
</defs>
</svg>
